# xmcd
#
# Track frame offsets:
#	150
#	11970
#	22093
#	43753
#	60752
#
# Disc length: 1122 seconds
#
# Revision: 1
# Processed by: cddbd v1.5.2PL0 Copyright (c) Steve Scherf et al.
# Submitted via: audiograbber 1.83.01
#
DISCID=39046005
DTITLE=Dustin Arbuckle and The Damnations - Live At The Hook And Ladder
DYEAR=2019
DGENRE=Blues
TTITLE0=Stop
TTITLE1=Spent the Rent
TTITLE2=Ramblin' Man
TTITLE3=Six Days on the Road
TTITLE4=I Can Tell
EXTD=
EXTT0=
EXTT1=
EXTT2=
EXTT3=
EXTT4=
PLAYORDER=
